<svg xmlns="http://www.w3.org/2000/svg" viewBox="0 0 427.69 259.62"><defs><style>.cls-1{fill:#0c2445;}.cls-2{fill:#c0a053;}</style></defs><title>Asset 2</title><g id="Layer_2" data-name="Layer 2"><g id="Layer_1-2" data-name="Layer 1"><path class="cls-1" d="M80.8.71a12.54,12.54,0,0,1,1.84,7.11q0,87.23,0,174.45c0,3.47-.45,6.95-.7,10.42a21,21,0,0,1-6.74,11.94c-2.81,2.39-2.66,4.13,1.12,4.87,30.34,6,60.66,12.1,91.05,17.78a43.17,43.17,0,0,0,22.21-1.51c1.11-.39,2.49-1.64,3.43.25.71,1.41-.46,2.17-1.34,2.87-12.17,9.82-24.18,19.9-38.18,27.11a30.27,30.27,0,0,1-22.28,2.55Q68.13,241.72,5,224.95c-2-.54-4.93-.4-4.77-3.28s3-2.62,5.09-2.93a40.47,40.47,0,0,0,11.4-3.48c7.5-3.55,11.57-8.69,11.49-17.86-.38-45.62-.15-91.25-.15-136.88,0-2-.13-4-.2-6,0-10.45.2-20.9.09-31.35-.07-7-4.54-11.11-10.27-14.07C12.44,6.41,6.64,5.69.91,4.78-1.79-.45,2.08,0,5.13,0Q40.26,0,75.4,0A42.11,42.11,0,0,1,80.8.71Z"/><path class="cls-1" d="M314.6,171.3c.06-21,.14-42,.16-62.94q0-27.23-.15-54.47c0-3,1.42-5,3.34-6.9,28.07-5.47,56.53-6.88,85-7.87,14.64-.51,23.17,7.13,24.3,21.38a98.83,98.83,0,0,1-.47,22.95c-2,12.71-8.77,21.64-20.93,26.38s-24.93,5.84-37.72,6.61c-5.24.32-6.81,2.08-6.55,7.24.43,8.48,0,17,.15,25.49.14,9.61,1.17,11.19,10.6,13.29,10.18,2.27,20.35,5.38,31,3.34a54.69,54.69,0,0,0,11.81-3.91c1.08-.48,2.29-2,3.49-.44,1,1.4-.24,2.47-1.08,3.45-8.07,9.36-17.16,17.64-26.5,25.73-9,7.82-18.84,9.74-30.19,6.82-9.82-2.53-19.77-4.57-29.68-6.73C317.84,187.83,315.17,184.77,314.6,171.3Zm47.1-91.25c0,8.32.11,16.65-.05,25-.07,3.66,1.46,4.67,4.85,4.23,5.83-.77,10.07-3.88,12.17-9.14,5.58-13.94,5.66-28.19,1.11-42.43a11.42,11.42,0,0,0-7.45-7.54c-6.56-2.23-10.6.63-10.62,7.45C361.69,65.07,361.7,72.56,361.69,80.05Z"/><path class="cls-1" d="M219.62,152.42q.06-40.63.16-81.27c0-4.6-3.57-4.21-6.2-4.47a102.07,102.07,0,0,0-12.46-.1c-3.61.09-5.07-.9-3.08-4.62,2.19-4.1,4.2-8.3,6.14-12.53,1.72-3.73,4.82-3.95,8.34-3.89,7.08.11,7.23-.13,7.22-7.26,0-3.16.13-6.33-.1-9.47-.6-8-3.9-11.94-11.67-14-1.4-.38-3.3-.16-2.85-2.44.38-1.92,2.07-1.85,3.58-1.87l14.92-.23,2.51,0,.25.19.24-.2H229l.26.2.27-.19,38.45,0c3.82.67,5.08,3,5,6.76-.16,7.49.26,15-.17,22.47-.29,5.1,1.8,6.3,6.38,6.15,7.65-.26,15.32,0,23-.13,3.76-.07,4.48,1.27,2.68,4.38-.08.14-.16.29-.23.44C297,66.54,297,66.72,279,66.46c-5-.07-6.23,1.64-6.14,6.3.27,15,.17,30,.22,44.93.2,18.1-.87,36.23.55,54.3.7,8.88,3.63,16.76,14.36,18a1.8,1.8,0,0,1,1.77,1.47c.19,1.26-.67,1.85-1.67,2.08-20.21,4.68-40.34,10.72-60.79.57-5.25-2.61-8-5.78-7.77-11.84.32-7.3.06-14.62,0-21.93,0,0,0-.34,0-.34Q219.61,156.22,219.62,152.42Z"/><path class="cls-1" d="M124.57,187.47c-.15-2-.42-4-.42-5.94q0-57.57,0-115.14c0-3.36-.15-6.74,3.56-8.53,16-.05,32.06-.53,48.08.25,2.2,2,2.23,4.61,2.22,7.32q-.12,46.34-.15,92.68a23.39,23.39,0,0,0,.25,2.46c-.06,6.33-.13,12.68,1.76,18.81,1.73,5.61,4.87,9.81,11.26,10.5,1.13.12,2.54.16,2.73,1.64.24,1.87-1.34,2-2.62,2.3-10,2.42-20.07,4.78-30.34,5.9-11.35,1.23-21.67-2.36-31.7-7.15A9.45,9.45,0,0,1,124.57,187.47Z"/><path class="cls-2" d="M219.61,160s0,.35,0,.34l-.29-.17Z"/><path class="cls-1" d="M125.87,47.16c-1.71-2.46-1.82-5.24-1.76-8.11.08-3.66.12-7.34-.08-11-.4-7.3-3.47-10.84-11.32-13.23-1.5-.46-3.14-.66-2.79-2.71.3-1.74,1.89-1.6,3.2-1.62,5.48-.09,11-.15,16.46-.22l46.2.34A9.12,9.12,0,0,1,178,16.95q-.24,12.11,0,24.24a9.57,9.57,0,0,1-2.1,6.34c-11.41.09-22.81.29-34.22.23C136.4,47.73,131.09,48.46,125.87,47.16Z"/><path class="cls-2" d="M226.13,10.28c.16-.5.33-.46.49,0l-.25.2Z"/><path class="cls-2" d="M229,10.27c.18-.45.36-.51.53,0l-.27.19Z"/></g></g></svg>